<svg width="676" height="102" viewBox="0 0 676 102" fill="none" xmlns="http://www.w3.org/2000/svg">
<path d="M27.8522 60.472L10.5912 22.864C10.5912 22.864 7.48023 17.0081 2.49123 19.5041C-2.49777 21.9991 1.35823 29.026 2.49123 31.977C3.62423 34.923 21.5382 73.245 21.5382 73.245L10.8802 91.611C10.8802 91.611 8.15923 97.734 12.6942 100.229C17.2302 102.722 19.2702 100.454 20.6312 98.189C21.9922 95.9201 47.8412 47.393 66.2092 22.679C72.3322 13.381 69.8372 11.115 67.5692 9.98003C65.3022 8.84603 61.2212 7.94004 53.2842 19.959C45.3482 31.976 29.1772 56.992 27.8522 60.472Z" fill="black"/>
<path d="M89.3452 55.3381C96.8363 56.0251 94.0983 64.8541 88.2043 64.4011C93.6453 75.0591 78.9073 92.518 59.5193 92.971C40.1323 93.426 35.5963 77.3251 46.7073 59.1851C57.8183 41.0451 72.3313 52.1551 72.3313 52.1551C75.8953 54.1201 81.8552 54.6501 89.3452 55.3381ZM76.4123 64.6271C76.4123 64.6271 64.8483 66.6701 61.2203 61.4531C60.5393 60.0921 54.4173 62.1751 53.2833 70.8841C52.1503 79.5931 52.1163 85.9431 67.3253 81.6341C73.4643 78.9111 83.8952 67.5761 76.4123 64.6271Z" fill="black"/>
<path d="M131.287 30.16C131.515 49.662 123.351 64.627 112.693 74.604C115.868 79.592 131.74 74.831 137.183 72.044C146.479 58.601 153.508 50.566 164.393 44.217C175.276 37.869 186.16 43.992 186.16 50.342C186.16 56.691 177.091 53.74 174.597 53.061C165.073 52.154 153.735 65.76 149.653 73.243C145.571 80.726 150.561 77.778 150.561 77.778C150.561 77.778 166.886 65.081 170.968 62.359C175.051 59.637 180.492 57.597 181.399 70.882C182.306 84.168 198.405 72.0431 198.405 72.0431C198.405 72.0431 199.539 68.0261 199.312 61.0691C197.498 59.7811 193.643 53.74 203.394 51.7C213.145 49.66 209.795 68.708 209.795 68.708C209.795 68.708 216.093 64.3991 226.07 55.3281C241.262 43.3101 247.384 54.875 248.292 66.439C249.653 81.86 259.402 75.057 266.885 70.881C266.885 70.881 267.792 65.079 271.193 61.068C290.014 38.692 305.434 48.753 308.835 52.152C312.235 55.555 311.102 48.785 311.102 48.785C311.102 48.785 306.795 10.885 307.248 7.93603C308.835 -8.16297 317.678 5.21404 317.678 5.21404C324.029 25.623 326.522 66.438 321.08 72.041C314.05 78.325 308.835 64.171 303.619 60.088C294.549 55.555 285.478 59.6351 280.491 68.9311C274.141 81.8591 303.14 78.2241 303.14 78.2241C324.255 71.2001 318.812 82.764 310.649 87.3C277.769 97.73 269.606 80.95 269.606 80.95C269.606 80.95 268.927 82.9921 256.001 86.62C243.076 90.248 238.995 78.2301 238.088 69.6121C237.18 60.9961 235.819 60.543 231.965 64.171C224.71 71.199 215.866 78.907 208.836 87.3C201.806 95.69 197.952 83.446 197.952 83.446C197.952 83.446 197.952 83.446 193.87 85.486C181.398 92.289 174.142 85.711 169.834 75.886C169.834 75.886 160.084 85.9391 153.507 89.7931C143.757 95.0101 140.809 91.38 136.5 83.014C113.599 94.829 106.117 85.034 106.117 85.034C77.9982 49.2061 114.733 9.35806 114.733 9.35806C124.711 1.02905 131.06 10.659 131.287 30.16ZM107.478 63.9481C107.478 63.9481 120.856 50.567 120.176 27.214C119.95 11.114 112.467 29.481 110.88 34.243C110.88 34.243 104.984 56.4641 107.478 63.9481Z" fill="black"/>
<path d="M361.443 74.1511C370.967 69.8421 375.727 69.616 377.315 72.338C378.902 75.06 379.128 86.6241 344.888 89.3441C310.649 92.0641 329.469 52.6111 335.138 46.1121C340.807 39.6161 358.268 25.3991 362.802 46.1121C367.337 66.8251 336.725 73.696 336.725 73.696C332.872 80.7271 351.919 78.4591 361.443 74.1511ZM339.673 62.3821C339.673 62.3821 354.874 55.1061 351.357 47.8481C348.744 43.9941 336.273 60.8161 339.673 62.3821Z" fill="black"/>
<path d="M465.748 22.679C465.748 22.679 429.243 40.138 429.694 71.657C430.149 80.955 436.046 88.891 468.246 82.087C476.859 80.275 479.582 80.955 480.034 83.675C480.487 86.397 480.034 94.333 455.771 95.015C431.509 95.695 402.71 89.731 425.16 46.113C437.404 23.133 461.215 10.436 461.215 10.436C461.215 10.436 469.831 5.90004 469.605 14.29C469.376 22.679 465.748 22.679 465.748 22.679Z" fill="black"/>
<path d="M516.087 71.8851C519.035 68.0291 526.065 54.1961 541.711 45.3531C557.357 36.5101 562.8 45.8061 564.158 49.0201C565.517 52.2291 561.666 56.6931 555.09 53.2901C547.151 49.4361 532.413 65.0831 527.652 71.4331C521.529 81.8641 528.332 78.2361 528.332 78.2361C528.332 78.2361 539.443 68.0301 548.286 62.3831C557.131 56.7371 558.265 62.3621 558.718 73.0211C559.173 83.6751 575.498 72.7921 575.498 72.7921C575.498 72.7921 575.498 68.0291 575.269 61.4541C575.044 54.8781 576.403 47.6221 582.299 47.8491C588.194 48.0761 587.062 60.3221 587.062 60.3221C587.062 60.3221 591.371 56.9191 600.438 52.1371C609.509 47.3551 621.074 48.9811 621.529 56.0121C621.982 63.0411 614.045 59.6401 607.696 60.3221C601.348 61.0021 587.289 67.8031 585.474 76.8731C583.661 85.9441 578.896 82.9981 578.896 82.9981C578.896 82.9981 576.856 82.0881 566.428 86.3971C555.998 90.7071 550.781 81.1821 549.872 78.4601C548.967 75.7401 548.06 75.8911 548.06 75.8911C548.06 75.8911 543.977 78.4601 532.866 87.4411C521.755 96.4201 516.995 87.0791 516.54 85.4911C516.087 83.9041 516.315 81.6361 512.912 83.6761C494.093 91.8411 482.53 85.2631 477.312 77.7811C465.294 46.036 482.53 20.1851 482.53 20.1851C484.57 17.0101 504.298 -8.38493 508.832 20.1851C513.365 53.2911 490.92 73.2461 490.92 73.2461C493.186 80.7271 506.338 75.9661 516.087 71.8851ZM485.705 63.7201C485.705 63.7201 497.268 51.976 497.948 35.285C498.63 18.596 496.361 16.3291 489.105 31.0671C481.85 45.8061 482.98 58.2801 485.705 63.7201Z" fill="black"/>
<path d="M635.586 16.7821C635.586 16.7821 622.924 27.8931 621.546 79.3661C621.753 84.3551 624.475 84.8081 627.423 85.2611C630.371 85.7141 632.411 84.1271 632.866 81.1811C633.319 78.2351 633.093 70.7501 633.093 70.7501C633.093 70.7501 638.988 75.5131 647.377 80.4991C655.767 85.4891 671.186 94.7851 674.36 87.7571C677.535 80.7281 673.907 79.8211 667.559 77.7791C661.209 75.7391 642.388 67.346 636.947 60.091C635.586 58.504 638.305 57.5981 641.48 56.4631C644.657 55.3291 652.818 53.0211 668.918 52.1351C674.588 51.93 673.68 42.354 665.29 42.492C656.9 42.632 642.388 44.4461 635.811 47.3921C638.304 36.7361 640.346 31.294 644.427 25.173C648.507 19.048 647.149 14.514 643.521 13.833C639.895 13.154 635.586 16.7821 635.586 16.7821Z" fill="black"/>
</svg>
